<mxfile host="Electron" modified="2023-11-13T20:48:27.864Z" agent="Mozilla/5.0 (Windows NT 10.0; Win64; x64) AppleWebKit/537.36 (KHTML, like Gecko) draw.io/22.0.2 Chrome/114.0.5735.289 Electron/25.8.4 Safari/537.36" etag="TJapEG_RPzHBD1TMoAvM" version="22.0.2" type="device">
  <diagram name="Page-1" id="e11U5r9_M-7ttXxyR1hf">
    <mxGraphModel dx="1102" dy="811" grid="1" gridSize="10" guides="1" tooltips="1" connect="1" arrows="1" fold="1" page="1" pageScale="1" pageWidth="1100" pageHeight="850" math="0" shadow="0">
      <root>
        <mxCell id="0" />
        <mxCell id="1" parent="0" />
        <mxCell id="634mZ7nP2b5RwqxIQdvd-1" value="" style="edgeStyle=orthogonalEdgeStyle;rounded=0;orthogonalLoop=1;jettySize=auto;html=1;" edge="1" parent="1" source="634mZ7nP2b5RwqxIQdvd-2" target="634mZ7nP2b5RwqxIQdvd-5">
          <mxGeometry relative="1" as="geometry" />
        </mxCell>
        <mxCell id="634mZ7nP2b5RwqxIQdvd-2" value="&lt;p style=&quot;line-height: 90%;&quot;&gt;&lt;font style=&quot;font-size: 10px;&quot;&gt;Start&lt;/font&gt;&lt;/p&gt;" style="ellipse;whiteSpace=wrap;html=1;aspect=fixed;" vertex="1" parent="1">
          <mxGeometry x="80" y="120" width="40" height="40" as="geometry" />
        </mxCell>
        <mxCell id="634mZ7nP2b5RwqxIQdvd-3" value="&lt;font style=&quot;font-size: 10px;&quot;&gt;Finish&lt;/font&gt;" style="ellipse;whiteSpace=wrap;html=1;aspect=fixed;fontSize=7;" vertex="1" parent="1">
          <mxGeometry x="440" y="240" width="40" height="40" as="geometry" />
        </mxCell>
        <mxCell id="634mZ7nP2b5RwqxIQdvd-4" value="" style="edgeStyle=orthogonalEdgeStyle;rounded=0;orthogonalLoop=1;jettySize=auto;html=1;" edge="1" parent="1" source="634mZ7nP2b5RwqxIQdvd-5" target="634mZ7nP2b5RwqxIQdvd-7">
          <mxGeometry relative="1" as="geometry" />
        </mxCell>
        <mxCell id="634mZ7nP2b5RwqxIQdvd-5" value="&lt;font style=&quot;font-size: 10px;&quot;&gt;Select Nav Menu&lt;/font&gt;" style="rounded=1;whiteSpace=wrap;html=1;" vertex="1" parent="1">
          <mxGeometry x="200" y="120" width="120" height="40" as="geometry" />
        </mxCell>
        <mxCell id="634mZ7nP2b5RwqxIQdvd-6" value="" style="edgeStyle=orthogonalEdgeStyle;rounded=0;orthogonalLoop=1;jettySize=auto;html=1;" edge="1" parent="1" source="634mZ7nP2b5RwqxIQdvd-7" target="634mZ7nP2b5RwqxIQdvd-9">
          <mxGeometry relative="1" as="geometry" />
        </mxCell>
        <mxCell id="634mZ7nP2b5RwqxIQdvd-7" value="&lt;font style=&quot;font-size: 10px;&quot;&gt;Click Events&amp;nbsp;Link&lt;/font&gt;" style="rounded=1;whiteSpace=wrap;html=1;" vertex="1" parent="1">
          <mxGeometry x="200" y="240" width="120" height="40" as="geometry" />
        </mxCell>
        <mxCell id="634mZ7nP2b5RwqxIQdvd-19" value="" style="edgeStyle=orthogonalEdgeStyle;rounded=0;orthogonalLoop=1;jettySize=auto;html=1;" edge="1" parent="1" source="634mZ7nP2b5RwqxIQdvd-9" target="634mZ7nP2b5RwqxIQdvd-18">
          <mxGeometry relative="1" as="geometry" />
        </mxCell>
        <mxCell id="634mZ7nP2b5RwqxIQdvd-9" value="&lt;font style=&quot;font-size: 10px;&quot;&gt;Click Individual&lt;br&gt;Event Link&lt;/font&gt;" style="rounded=1;whiteSpace=wrap;html=1;" vertex="1" parent="1">
          <mxGeometry x="200" y="360" width="120" height="40" as="geometry" />
        </mxCell>
        <mxCell id="634mZ7nP2b5RwqxIQdvd-21" value="" style="edgeStyle=orthogonalEdgeStyle;rounded=0;orthogonalLoop=1;jettySize=auto;html=1;" edge="1" parent="1" source="634mZ7nP2b5RwqxIQdvd-18" target="634mZ7nP2b5RwqxIQdvd-20">
          <mxGeometry relative="1" as="geometry" />
        </mxCell>
        <mxCell id="634mZ7nP2b5RwqxIQdvd-18" value="&lt;font style=&quot;font-size: 10px;&quot;&gt;Click Invite &lt;br&gt;Friends Button&lt;/font&gt;" style="rounded=1;whiteSpace=wrap;html=1;" vertex="1" parent="1">
          <mxGeometry x="200" y="480" width="120" height="40" as="geometry" />
        </mxCell>
        <mxCell id="634mZ7nP2b5RwqxIQdvd-25" value="" style="edgeStyle=orthogonalEdgeStyle;rounded=0;orthogonalLoop=1;jettySize=auto;html=1;" edge="1" parent="1" source="634mZ7nP2b5RwqxIQdvd-20" target="634mZ7nP2b5RwqxIQdvd-22">
          <mxGeometry relative="1" as="geometry" />
        </mxCell>
        <mxCell id="634mZ7nP2b5RwqxIQdvd-27" value="Yes" style="edgeLabel;html=1;align=center;verticalAlign=middle;resizable=0;points=[];" vertex="1" connectable="0" parent="634mZ7nP2b5RwqxIQdvd-25">
          <mxGeometry x="-0.0508" relative="1" as="geometry">
            <mxPoint as="offset" />
          </mxGeometry>
        </mxCell>
        <mxCell id="634mZ7nP2b5RwqxIQdvd-26" value="" style="edgeStyle=orthogonalEdgeStyle;rounded=0;orthogonalLoop=1;jettySize=auto;html=1;" edge="1" parent="1" source="634mZ7nP2b5RwqxIQdvd-20" target="634mZ7nP2b5RwqxIQdvd-23">
          <mxGeometry relative="1" as="geometry" />
        </mxCell>
        <mxCell id="634mZ7nP2b5RwqxIQdvd-28" value="No" style="edgeLabel;html=1;align=center;verticalAlign=middle;resizable=0;points=[];" vertex="1" connectable="0" parent="634mZ7nP2b5RwqxIQdvd-26">
          <mxGeometry x="-0.3206" y="-2" relative="1" as="geometry">
            <mxPoint as="offset" />
          </mxGeometry>
        </mxCell>
        <mxCell id="634mZ7nP2b5RwqxIQdvd-20" value="&lt;p style=&quot;line-height: 100%;&quot;&gt;&lt;span style=&quot;font-size: 10px;&quot;&gt;Friend Visible?&lt;/span&gt;&lt;/p&gt;" style="rhombus;whiteSpace=wrap;html=1;" vertex="1" parent="1">
          <mxGeometry x="430" y="470" width="60" height="60" as="geometry" />
        </mxCell>
        <mxCell id="634mZ7nP2b5RwqxIQdvd-34" value="" style="edgeStyle=orthogonalEdgeStyle;rounded=0;orthogonalLoop=1;jettySize=auto;html=1;" edge="1" parent="1" source="634mZ7nP2b5RwqxIQdvd-22" target="634mZ7nP2b5RwqxIQdvd-3">
          <mxGeometry relative="1" as="geometry" />
        </mxCell>
        <mxCell id="634mZ7nP2b5RwqxIQdvd-22" value="&lt;font style=&quot;font-size: 10px;&quot;&gt;Click Add Button&lt;br&gt;next to Friend&lt;br&gt;&lt;/font&gt;" style="rounded=1;whiteSpace=wrap;html=1;" vertex="1" parent="1">
          <mxGeometry x="400" y="360" width="120" height="40" as="geometry" />
        </mxCell>
        <mxCell id="634mZ7nP2b5RwqxIQdvd-29" value="" style="edgeStyle=orthogonalEdgeStyle;rounded=0;orthogonalLoop=1;jettySize=auto;html=1;" edge="1" parent="1" source="634mZ7nP2b5RwqxIQdvd-23" target="634mZ7nP2b5RwqxIQdvd-24">
          <mxGeometry relative="1" as="geometry" />
        </mxCell>
        <mxCell id="634mZ7nP2b5RwqxIQdvd-23" value="&lt;font style=&quot;font-size: 10px;&quot;&gt;Search Friend&lt;br&gt;by Name or Email&lt;br&gt;&lt;/font&gt;" style="rounded=1;whiteSpace=wrap;html=1;" vertex="1" parent="1">
          <mxGeometry x="400" y="600" width="120" height="40" as="geometry" />
        </mxCell>
        <mxCell id="634mZ7nP2b5RwqxIQdvd-30" style="edgeStyle=orthogonalEdgeStyle;rounded=0;orthogonalLoop=1;jettySize=auto;html=1;entryX=0.5;entryY=1;entryDx=0;entryDy=0;exitX=0.5;exitY=1;exitDx=0;exitDy=0;" edge="1" parent="1" source="634mZ7nP2b5RwqxIQdvd-24" target="634mZ7nP2b5RwqxIQdvd-23">
          <mxGeometry relative="1" as="geometry">
            <Array as="points">
              <mxPoint x="660" y="680" />
              <mxPoint x="460" y="680" />
            </Array>
          </mxGeometry>
        </mxCell>
        <mxCell id="634mZ7nP2b5RwqxIQdvd-31" value="&amp;nbsp;No&amp;nbsp;" style="edgeLabel;html=1;align=center;verticalAlign=middle;resizable=0;points=[];" vertex="1" connectable="0" parent="634mZ7nP2b5RwqxIQdvd-30">
          <mxGeometry x="-0.0593" relative="1" as="geometry">
            <mxPoint as="offset" />
          </mxGeometry>
        </mxCell>
        <mxCell id="634mZ7nP2b5RwqxIQdvd-32" style="edgeStyle=orthogonalEdgeStyle;rounded=0;orthogonalLoop=1;jettySize=auto;html=1;entryX=1;entryY=0.5;entryDx=0;entryDy=0;exitX=0.5;exitY=0;exitDx=0;exitDy=0;" edge="1" parent="1" source="634mZ7nP2b5RwqxIQdvd-24" target="634mZ7nP2b5RwqxIQdvd-22">
          <mxGeometry relative="1" as="geometry" />
        </mxCell>
        <mxCell id="634mZ7nP2b5RwqxIQdvd-33" value="Yes" style="edgeLabel;html=1;align=center;verticalAlign=middle;resizable=0;points=[];" vertex="1" connectable="0" parent="634mZ7nP2b5RwqxIQdvd-32">
          <mxGeometry x="-0.4725" y="1" relative="1" as="geometry">
            <mxPoint as="offset" />
          </mxGeometry>
        </mxCell>
        <mxCell id="634mZ7nP2b5RwqxIQdvd-24" value="&lt;p style=&quot;line-height: 100%;&quot;&gt;&lt;span style=&quot;font-size: 10px;&quot;&gt;Friend Found?&lt;/span&gt;&lt;/p&gt;" style="rhombus;whiteSpace=wrap;html=1;" vertex="1" parent="1">
          <mxGeometry x="630" y="590" width="60" height="60" as="geometry" />
        </mxCell>
      </root>
    </mxGraphModel>
  </diagram>
</mxfile>
